PathFileType	3	(X/Y/Z)	F:\ViconData\AntennenMessung\Messung1\Session1\ID02.trc
DataRate	CameraRate	NumFrames	NumMarkers	Units	OrigDataRate	OrigDataStartFrame	OrigNumFrames
120.0	120.0	5	70	mm	120.0	347	924	
Frame#	Time	Ashort			Along			Atop			A4			Bshort			Blong			Btop			B4			Cshort			Clong			Ctop			C4			Dshort			Dlong			Dtop			D4			Eshort			Elong			Etop			E4			Fshort			Flong			Ftop			F4			Gshort			Glong			Gtop			G4			Hshort			Hlong			Htop			H4			I1			I2			I3			I4			I5			WandAshort			WandAlong			WandAtop			WandA4			WandA15			WandBshort			WandB4			WandB5			WandBtop			WandBlong			WandCshort			WandClong			WandCtop			WandC4			WandC5			Acenter			Aantenna			Bcenter			Bantenna			Ccenter			Cantenna			Dcenter			Dantenna			Ecenter			Eantenna			Fcenter			Fantenna			Gcenter			Gantenna			Hcenter			Hantenna			Icenter			Iantenna			
		X1	Y1	Z1	X2	Y2	Z2	X3	Y3	Z3	X4	Y4	Z4	X5	Y5	Z5	X6	Y6	Z6	X7	Y7	Z7	X8	Y8	Z8	X9	Y9	Z9	X10	Y10	Z10	X11	Y11	Z11	X12	Y12	Z12	X13	Y13	Z13	X14	Y14	Z14	X15	Y15	Z15	X16	Y16	Z16	X17	Y17	Z17	X18	Y18	Z18	X19	Y19	Z19	X20	Y20	Z20	X21	Y21	Z21	X22	Y22	Z22	X23	Y23	Z23	X24	Y24	Z24	X25	Y25	Z25	X26	Y26	Z26	X27	Y27	Z27	X28	Y28	Z28	X29	Y29	Z29	X30	Y30	Z30	X31	Y31	Z31	X32	Y32	Z32	X33	Y33	Z33	X34	Y34	Z34	X35	Y35	Z35	X36	Y36	Z36	X37	Y37	Z37	X38	Y38	Z38	X39	Y39	Z39	X40	Y40	Z40	X41	Y41	Z41	X42	Y42	Z42	X43	Y43	Z43	X44	Y44	Z44	X45	Y45	Z45	X46	Y46	Z46	X47	Y47	Z47	X48	Y48	Z48	X49	Y49	Z49	X50	Y50	Z50	X51	Y51	Z51	X52	Y52	Z52	X53	Y53	Z53	X54	Y54	Z54	X55	Y55	Z55	X56	Y56	Z56	X57	Y57	Z57	X58	Y58	Z58	X59	Y59	Z59	X60	Y60	Z60	X61	Y61	Z61	X62	Y62	Z62	X63	Y63	Z63	X64	Y64	Z64	X65	Y65	Z65	X66	Y66	Z66	X67	Y67	Z67	X68	Y68	Z68	X69	Y69	Z69	X70	Y70	Z70	
347	2.8833333	-1038.23	214.33424	-1644.1844	-1109.1901	203.13075	-1599.6273	-1063.7452	172.68553	-1625.3926	-1054.1331	262.05927	-1634.962	-1353.0099	234.83478	1003.869	-1281.3236	227.20502	1052.2827	-1323.0166	194.13518	1020.7797	-1284.5647	287.87708	1052.7426	813.9483	187.64658	1209.4308	892.43842	178.48254	1179.1556	844.58612	145.28685	1198.207	860.64111	292.21066	1167.2595	1115.8099	209.73277	-1401.6968	1056.2645	194.00754	-1460.1306	1095.0376	162.17928	-1423.9135	1069.8539	238.59038	-1425.9445	-1204.4908	1685.9359	-1563.3241	-1129.0847	1688.2018	-1606.0397	-1173.0601	1724.2865	-1581.9805	-1133.5225	1581.0522	-1603.4706	-1239.668	1699.1835	1119.2266	-1309.3777	1698.7942	1071.7534	-1270.3496	1736.1704	1096.6581	-1244.7505	1593.6223	1106.5055	988.8924	1664.2871	1162.2675	957.52081	1700.3101	1183.6949	922.5144	1662.1781	1214.7947	939.81482	1659.3477	1159.8901	999.25482	1668.5748	-1579.5364	1058.9232	1670.1583	-1518.6301	1025.082	1708.0105	-1551.1356	1059.3163	1672.2213	-1585.6399	-542.02631	1144.101	-298.22852	-545.75092	1145.1749	-213.92233	-544.14008	1181.5538	-260.90955	-575.74548	1142.3878	-262.79514	-496.01233	1146.1167	-258.54214																																														-1069.1561	209.45146	-1624.7653	-1074.834	248.03033	-1624.1072	-1321.8358	231.51685	1024.9224	-1320.6119	270.26044	1029.2161	848.28448	183.6377	1196.1866	852.02289	222.40434	1194.1444	1088.6876	202.57013	-1428.3125	1082.6658	240.87587	-1432.4846	-1171.8447	1686.9169	-1581.8171	-1170.5769	1647.9377	-1581.647	-1270.9867	1699.0084	1097.8981	-1271.6548	1660.036	1099.1986	953.04596	1705.4482	1186.7513	972.91669	1733.6095	1168.5002	1026.6038	1669.3005	-1551.62	1028.1355	1630.3336	-1552.1077	-543.69672	1144.5825	-260.41891	-543.22906	1105.5887	-259.90146
348	2.8916667	-1038.2638	214.4185	-1644.2174	-1109.2867	203.35014	-1599.5491	-1063.6934	172.71069	-1625.408	-1053.9935	261.98563	-1634.9971	-1353.0333	234.79938	1003.9044	-1281.3101	227.07207	1052.353	-1323.0779	194.15712	1020.8115	-1284.5961	287.90741	1052.7845	813.87201	187.6731	1209.516	892.41284	178.46266	1179.1985	844.53925	145.34904	1198.1906	860.55316	292.34213	1167.2964	1115.821	209.7485	-1401.7096	1056.295	194.05951	-1460.145	1095.0458	162.21652	-1423.9526	1069.8499	238.58853	-1425.9534	-1204.4753	1685.9281	-1563.3138	-1129.0837	1688.213	-1606.089	-1173.1035	1724.3746	-1581.9825	-1133.5371	1581.0707	-1603.4906	-1239.6628	1699.1973	1119.2346	-1309.4808	1698.9735	1071.8267	-1270.3353	1736.1547	1096.646	-1244.656	1593.8552	1106.4675	988.88995	1664.2762	1162.2653	957.61768	1700.3069	1183.6746	922.20868	1662.2433	1214.804	939.83643	1659.35	1159.9135	999.25098	1668.568	-1579.5225	1058.9265	1670.1599	-1518.626	1025.0851	1708.0089	-1551.1339	1059.3175	1672.2323	-1585.6456	-542.03851	1144.1106	-298.21976	-545.74286	1145.1653	-213.92754	-544.1474	1181.5525	-260.91235	-575.69299	1142.4471	-262.75998	-496.07513	1146.1479	-258.85349																																														-1069.0837	209.61545	-1624.8339	-1074.7196	248.20143	-1624.2336	-1321.863	231.44116	1024.9596	-1320.6007	270.18167	1029.2698	848.27496	183.63866	1196.2361	852.05713	222.40436	1194.2573	1088.7014	202.60071	-1428.3322	1082.6831	240.90892	-1432.4868	-1171.8717	1686.9161	-1581.8121	-1170.5898	1647.9375	-1581.635	-1271.0725	1699.0966	1097.9066	-1271.8479	1660.1268	1099.2324	953.01672	1705.6078	1186.8245	973.00732	1733.7462	1168.6692	1026.6038	1669.2977	-1551.61	1028.1323	1630.3306	-1552.0894	-543.69922	1144.5834	-260.43002	-543.22656	1105.5895	-259.92133
349	2.9	-1038.2485	214.43794	-1644.2185	-1109.1831	203.19937	-1599.6484	-1063.5925	173.14389	-1625.6393	-1054.0043	261.96704	-1635.0078	-1352.9167	235.05705	1003.8127	-1281.2732	227.06277	1052.353	-1323.0609	194.10289	1020.8387	-1284.5546	287.92395	1052.7476	813.87231	187.64781	1209.4128	892.13495	178.36139	1179.3407	844.64325	145.26709	1198.1826	860.56696	292.31131	1167.2975	1115.8157	209.74933	-1401.6995	1056.3063	194.06279	-1460.1683	1095.0259	162.16826	-1423.9297	1069.8936	238.63725	-1425.9127	-1204.4717	1685.941	-1563.3303	-1129.1229	1688.309	-1606.5699	-1173.1322	1724.307	-1581.907	-1133.5151	1581.0471	-1603.4564	-1239.6558	1699.1802	1119.2356	-1309.3552	1698.7419	1071.7411	-1270.3159	1736.1432	1096.6388	-1244.6038	1594.0427	1106.3986	988.82935	1664.2305	1162.2729	957.56323	1700.3397	1183.7075	922.11865	1662.2092	1214.7653	939.86865	1659.3704	1159.8997	999.25818	1668.5685	-1579.5067	1058.9287	1670.1614	-1518.6155	1025.092	1708.0305	-1551.1359	1059.3103	1672.2175	-1585.6447	-542.03741	1144.1013	-298.21988	-545.75464	1145.1783	-213.92682	-544.14337	1181.5531	-260.91537	-575.70734	1142.4688	-262.74759	-496.07916	1146.1637	-258.87418																																														-1068.927	209.57735	-1624.9424	-1074.576	248.15901	-1624.2043	-1321.6823	231.57176	1024.9749	-1320.2568	270.31039	1029.2511	848.40271	183.55052	1196.1445	852.20898	222.30945	1194.0813	1088.7009	202.60196	-1428.34	1082.7083	240.91158	-1432.5186	-1171.9935	1686.9615	-1581.968	-1170.8051	1647.9797	-1582.0319	-1270.9493	1698.9833	1097.9115	-1271.6139	1660.0117	1099.2462	953.03369	1705.5707	1186.8126	973.08032	1733.6881	1168.6869	1026.6025	1669.2983	-1551.6029	1028.1222	1630.3308	-1552.0729	-543.70416	1144.5842	-260.42365	-543.24091	1105.5903	-259.90494
350	2.9083333	-1038.2384	214.41069	-1644.2247	-1109.1681	203.16118	-1599.6411	-1063.6028	172.64607	-1625.516	-1054.1249	262.03299	-1634.9613	-1353.1285	234.778	1003.9578	-1281.278	227.00769	1052.4163	-1323.0288	194.16306	1020.8132	-1284.5551	287.87097	1052.7714	813.91241	187.65341	1209.4115	892.16467	178.46938	1179.2164	844.65759	145.23438	1198.2581	860.66962	292.47153	1167.2552	1115.818	209.75285	-1401.7177	1056.1809	193.94714	-1460.1101	1094.9911	162.10576	-1423.8896	1069.8674	238.64275	-1425.9406	-1204.4767	1685.9344	-1563.3169	-1129.1167	1688.3359	-1606.5952	-1173.1295	1724.3024	-1581.8994	-1133.5292	1581.082	-1603.5203	-1239.6926	1699.2327	1119.2551	-1309.3945	1698.7926	1071.7539	-1270.3492	1736.1681	1096.6545	-1244.604	1594.0496	1106.4518	988.90631	1664.2911	1162.2806	957.52979	1700.293	1183.6714	922.10852	1662.1664	1214.7313	939.78571	1659.343	1159.9205	999.26801	1668.5613	-1579.5122	1058.9187	1670.1527	-1518.6244	1025.0916	1708.0256	-1551.1393	1059.3151	1672.2209	-1585.6328	-542.03351	1144.1066	-298.22659	-545.74738	1145.1603	-213.92459	-544.14056	1181.5485	-260.92206	-575.78223	1142.5322	-262.75021	-496.03104	1146.1361	-258.55579																																														-1069.0415	209.52527	-1624.863	-1074.7306	248.10205	-1624.1801	-1321.8579	231.39621	1025.0476	-1320.6401	270.12753	1029.4524	848.33954	183.61287	1196.1271	852.05847	222.37546	1193.9749	1088.6294	202.54698	-1428.3389	1082.6042	240.84767	-1432.5527	-1171.9844	1686.9697	-1581.9768	-1170.7886	1647.9882	-1582.0577	-1270.984	1699.035	1097.9302	-1271.6503	1660.0637	1099.2689	952.90991	1705.5938	1186.8208	972.89294	1733.7681	1168.7133	1026.6042	1669.2904	-1551.6089	1028.1263	1630.323	-1552.0814	-543.69812	1144.5789	-260.44043	-543.23145	1105.585	-259.9325
351	2.9166667	-1038.2295	214.35718	-1644.3109	-1109.1658	203.19962	-1599.6305	-1063.6373	172.64038	-1625.4822	-1054.1394	262.04398	-1634.9592	-1352.9597	234.85054	1003.9081	-1281.3289	227.23366	1052.2179	-1323.0602	194.16698	1020.7931	-1284.5234	287.93332	1052.7445	813.92841	187.72661	1209.5054	892.26147	178.56592	1179.2124	844.70923	145.12364	1198.3522	860.70325	293.0231	1166.8752	1115.811	209.75352	-1401.7092	1056.2933	194.09543	-1460.1735	1095.045	162.21086	-1423.9122	1069.8826	238.6413	-1425.9343	-1204.4816	1685.9484	-1563.3209	-1129.1053	1688.214	-1606.0397	-1173.0946	1724.3766	-1581.9666	-1133.5641	1581.0991	-1603.5153	-1239.6736	1699.197	1119.2321	-1309.4347	1698.9133	1071.7972	-1270.3612	1736.2046	1096.6619	-1244.6599	1593.839	1106.4698	988.8786	1664.2606	1162.2594	957.25769	1700.5284	1183.6337	922.63464	1662.1133	1214.9193	939.81409	1659.3589	1159.884	999.25537	1668.5662	-1579.5059	1058.9171	1670.1587	-1518.6205	1025.0863	1708.0137	-1551.1278	1059.3158	1672.2169	-1585.6432	-542.04169	1144.1035	-298.21713	-545.73962	1145.1525	-213.92728	-544.14026	1181.5421	-260.91904	-575.78351	1142.5673	-262.7663	-496.02332	1146.1396	-258.5423																																														-1069.0631	209.50735	-1624.8899	-1074.7407	248.08687	-1624.27	-1321.8489	231.54236	1024.89	-1320.5933	270.29004	1029.1375	848.38086	183.69754	1196.1819	852.07068	222.4613	1194.0009	1088.7312	202.6293	-1428.3097	1082.7463	240.94128	-1432.4778	-1171.8749	1686.9282	-1581.8003	-1170.6053	1647.9493	-1581.6273	-1271.05	1699.0693	1097.8972	-1271.7732	1660.0977	1099.1938	953.03381	1705.3728	1186.4888	972.78284	1733.4768	1168.0187	1026.601	1669.296	-1551.5992	1028.1256	1630.3287	-1552.074	-543.69904	1144.5736	-260.43967	-543.23358	1105.5796	-259.93405
